<?xml version="1.0" encoding="utf-8"?>
<!-- Generator: Adobe Illustrator 23.0.5, SVG Export Plug-In . SVG Version: 6.00 Build 0)  -->
<svg version="1.1" id="Capa_1" xmlns="http://www.w3.org/2000/svg" xmlns:xlink="http://www.w3.org/1999/xlink" x="0px" y="0px"
	 viewBox="0 0 222 62" style="enable-background:new 0 0 222 62;" xml:space="preserve">
<style type="text/css">
	.st0{enable-background:new    ;}
	.st1{fill:#FFFFFF;}
	.st2{fill:#B3B3B3;}
	.st3{fill:#595959;}
	.st4{fill:none;stroke:#595959;stroke-miterlimit:10;}
	.st5{fill:#4E4E4E;}
	.st6{fill:#2D2D2D;}
	.st7{fill:#1A1A1A;}
	.st8{fill:#1B1B1B;}
	.st9{fill:#202020;}
	.st10{fill:#7D7D7D;}
	.st11{fill:#9B9B9B;}
	.st12{fill:#3B3B3B;}
	.st13{fill:#3F3F3F;}
	.st14{fill:#393939;}
	.st15{fill:#5B5B5B;}
	.st16{fill:#7A7A7A;}
</style>
<g>
	<g class="st0">
		<path class="st1" d="M65,27.6c-0.7-0.3-1.3-0.8-1.7-1.3c-0.4-0.6-0.6-1.2-0.6-2v-0.4c0-0.1,0-0.1,0.1-0.2s0.1-0.1,0.2-0.1H65
			c0.1,0,0.1,0,0.2,0.1s0.1,0.1,0.1,0.2v0.3c0,0.5,0.2,0.9,0.7,1.2c0.4,0.3,1.1,0.5,1.8,0.5c0.6,0,1.1-0.1,1.4-0.4
			c0.3-0.3,0.5-0.6,0.5-1c0-0.3-0.1-0.5-0.3-0.7c-0.2-0.2-0.5-0.4-0.8-0.5c-0.3-0.2-0.9-0.4-1.6-0.6c-0.8-0.3-1.5-0.6-2.1-0.9
			c-0.6-0.3-1-0.7-1.4-1.2c-0.4-0.5-0.6-1.1-0.6-1.9c0-0.7,0.2-1.4,0.6-1.9s0.9-1,1.6-1.3c0.7-0.3,1.4-0.4,2.3-0.4
			c0.9,0,1.7,0.2,2.5,0.5c0.7,0.3,1.3,0.8,1.7,1.4s0.6,1.3,0.6,2v0.3c0,0.1,0,0.1-0.1,0.2c0,0-0.1,0.1-0.2,0.1h-2.1
			c-0.1,0-0.1,0-0.2-0.1c0,0-0.1-0.1-0.1-0.2v-0.1c0-0.5-0.2-0.9-0.6-1.3s-1-0.5-1.7-0.5c-0.6,0-1,0.1-1.3,0.4
			c-0.3,0.2-0.5,0.6-0.5,1c0,0.3,0.1,0.6,0.3,0.8c0.2,0.2,0.5,0.4,0.8,0.6s0.9,0.4,1.7,0.7c0.9,0.3,1.5,0.6,2,0.8
			c0.5,0.2,0.9,0.6,1.3,1.1c0.4,0.5,0.6,1.1,0.6,1.9c0,1.1-0.4,2-1.3,2.7s-2,1-3.4,1C66.5,28.1,65.7,27.9,65,27.6z"/>
		<path class="st1" d="M74,27.9c0,0-0.1-0.1-0.1-0.2V15.4c0-0.1,0-0.1,0.1-0.2c0,0,0.1-0.1,0.2-0.1h2.1c0.1,0,0.1,0,0.2,0.1
			c0,0,0.1,0.1,0.1,0.2v12.3c0,0.1,0,0.1-0.1,0.2s-0.1,0.1-0.2,0.1h-2.1C74.1,27.9,74.1,27.9,74,27.9z"/>
		<path class="st1" d="M87.7,15.3c0,0,0.1,0.1,0.1,0.2v1.8c0,0.1,0,0.1-0.1,0.2c0,0-0.1,0.1-0.2,0.1h-3.3c-0.1,0-0.1,0-0.1,0.1v10.2
			c0,0.1,0,0.1-0.1,0.2c0,0-0.1,0.1-0.2,0.1h-2.1c-0.1,0-0.1,0-0.2-0.1s-0.1-0.1-0.1-0.2V17.5c0-0.1,0-0.1-0.1-0.1h-3.2
			c-0.1,0-0.1,0-0.2-0.1c0,0-0.1-0.1-0.1-0.2v-1.8c0-0.1,0-0.1,0.1-0.2c0,0,0.1-0.1,0.2-0.1h9.2C87.6,15.2,87.6,15.2,87.7,15.3z"/>
		<path class="st1" d="M90.9,27.6c-0.7-0.4-1.3-0.9-1.7-1.6c-0.4-0.7-0.6-1.5-0.6-2.4v-3.9c0-0.9,0.2-1.7,0.6-2.4
			c0.4-0.7,1-1.2,1.7-1.6c0.7-0.4,1.6-0.6,2.5-0.6c1,0,1.8,0.2,2.5,0.6c0.7,0.4,1.3,0.9,1.7,1.6c0.4,0.7,0.6,1.5,0.6,2.4v3.9
			c0,0.9-0.2,1.7-0.6,2.4c-0.4,0.7-1,1.2-1.7,1.6c-0.7,0.4-1.6,0.6-2.5,0.6C92.4,28.1,91.6,28,90.9,27.6z M95,25.3
			c0.4-0.4,0.6-1,0.6-1.7v-4c0-0.7-0.2-1.3-0.6-1.7c-0.4-0.4-0.9-0.6-1.6-0.6c-0.7,0-1.2,0.2-1.6,0.6c-0.4,0.4-0.6,1-0.6,1.7v4
			c0,0.7,0.2,1.3,0.6,1.7c0.4,0.4,0.9,0.6,1.6,0.6C94.1,25.9,94.6,25.7,95,25.3z"/>
		<path class="st1" d="M107.5,15.7c0.6,0.3,1.1,0.8,1.4,1.4c0.3,0.6,0.5,1.3,0.5,2.1c0,0.8-0.2,1.4-0.5,2c-0.3,0.6-0.8,1-1.5,1.4
			s-1.3,0.5-2.2,0.5h-2.6c-0.1,0-0.1,0-0.1,0.1v4.6c0,0.1,0,0.1-0.1,0.2s-0.1,0.1-0.2,0.1h-2.1c-0.1,0-0.1,0-0.2-0.1
			c0,0-0.1-0.1-0.1-0.2V15.4c0-0.1,0-0.1,0.1-0.2c0,0,0.1-0.1,0.2-0.1h5.1C106.2,15.2,106.9,15.4,107.5,15.7z M106.4,20.5
			c0.3-0.3,0.5-0.7,0.5-1.3c0-0.5-0.2-1-0.5-1.3c-0.3-0.3-0.8-0.5-1.3-0.5h-2.3c-0.1,0-0.1,0-0.1,0.1v3.3c0,0.1,0,0.1,0.1,0.1h2.3
			C105.6,21,106,20.8,106.4,20.5z"/>
	</g>
	<g class="st0">
		<path class="st1" d="M62.7,40c-0.5-0.4-0.7-1-0.7-1.7v-0.4c0-0.1,0-0.1,0.1-0.1h0.6c0.1,0,0.1,0,0.1,0.1v0.3
			c0,0.5,0.2,0.9,0.5,1.2c0.3,0.3,0.8,0.4,1.3,0.4c0.5,0,0.9-0.1,1.2-0.4c0.3-0.3,0.4-0.6,0.4-1.1c0-0.3-0.1-0.6-0.2-0.8
			s-0.3-0.4-0.6-0.6c-0.3-0.2-0.7-0.4-1.2-0.7c-0.5-0.3-1-0.5-1.3-0.8s-0.6-0.5-0.7-0.8s-0.3-0.7-0.3-1.1c0-0.7,0.2-1.3,0.7-1.7
			c0.5-0.4,1.1-0.6,1.8-0.6c0.8,0,1.4,0.2,1.9,0.7c0.5,0.4,0.7,1,0.7,1.8v0.3c0,0.1,0,0.1-0.1,0.1h-0.7c-0.1,0-0.1,0-0.1-0.1v-0.3
			c0-0.5-0.2-0.9-0.5-1.2c-0.3-0.3-0.7-0.4-1.3-0.4c-0.5,0-0.9,0.1-1.1,0.4S63,33.1,63,33.6c0,0.3,0.1,0.5,0.2,0.7
			c0.1,0.2,0.3,0.4,0.6,0.5c0.2,0.2,0.6,0.4,1.1,0.7c0.6,0.3,1,0.6,1.4,0.8c0.3,0.2,0.6,0.5,0.8,0.8c0.2,0.3,0.3,0.7,0.3,1.1
			c0,0.7-0.2,1.3-0.7,1.7s-1.1,0.6-1.9,0.6C63.9,40.7,63.2,40.4,62.7,40z"/>
		<path class="st1" d="M68.9,32.6c-0.1-0.1-0.2-0.3-0.2-0.5c0-0.2,0.1-0.4,0.2-0.5s0.3-0.2,0.5-0.2c0.2,0,0.4,0.1,0.5,0.2
			c0.1,0.1,0.2,0.3,0.2,0.5c0,0.2-0.1,0.4-0.2,0.5c-0.1,0.1-0.3,0.2-0.5,0.2C69.2,32.8,69,32.7,68.9,32.6z M68.9,40.4v-6.3
			c0-0.1,0-0.1,0.1-0.1h0.7c0.1,0,0.1,0,0.1,0.1v6.3c0,0.1,0,0.1-0.1,0.1h-0.7C69,40.6,68.9,40.5,68.9,40.4z"/>
		<path class="st1" d="M72.2,40.1c-0.4-0.3-0.6-0.7-0.6-1.2v-0.1c0-0.1,0-0.1,0.1-0.1h0.6c0.1,0,0.1,0,0.1,0.1v0.1
			c0,0.3,0.1,0.5,0.4,0.7c0.2,0.2,0.6,0.3,1,0.3c0.4,0,0.7-0.1,0.9-0.3c0.2-0.2,0.4-0.5,0.4-0.8c0-0.2-0.1-0.4-0.2-0.5
			c-0.1-0.1-0.3-0.3-0.5-0.4c-0.2-0.1-0.5-0.2-0.8-0.3c-0.4-0.1-0.7-0.3-1-0.4c-0.3-0.1-0.5-0.3-0.7-0.6c-0.2-0.2-0.3-0.6-0.3-0.9
			c0-0.6,0.2-1,0.6-1.3c0.4-0.3,0.9-0.5,1.5-0.5c0.7,0,1.2,0.2,1.6,0.5s0.6,0.8,0.6,1.3v0c0,0.1,0,0.1-0.1,0.1h-0.6
			c-0.1,0-0.1,0-0.1-0.1v-0.1c0-0.3-0.1-0.5-0.4-0.7s-0.6-0.3-1-0.3c-0.4,0-0.7,0.1-0.9,0.3s-0.3,0.4-0.3,0.7c0,0.3,0.1,0.5,0.3,0.7
			s0.6,0.3,1.1,0.5c0.4,0.1,0.8,0.3,1.1,0.4c0.3,0.1,0.5,0.3,0.7,0.6c0.2,0.2,0.3,0.6,0.3,1c0,0.6-0.2,1-0.6,1.3s-0.9,0.5-1.6,0.5
			C73.1,40.6,72.6,40.5,72.2,40.1z"/>
		<path class="st1" d="M79.9,34.7h-1.2c0,0-0.1,0-0.1,0.1v3.9c0,0.4,0.1,0.7,0.2,0.9c0.2,0.2,0.4,0.2,0.8,0.2h0.2
			c0.1,0,0.1,0,0.1,0.1v0.5c0,0.1,0,0.1-0.1,0.1l-0.4,0c-0.6,0-1-0.1-1.3-0.3c-0.3-0.2-0.4-0.7-0.4-1.3v-4.2c0,0,0-0.1-0.1-0.1H77
			c-0.1,0-0.1,0-0.1-0.1v-0.5c0-0.1,0-0.1,0.1-0.1h0.7c0,0,0.1,0,0.1-0.1v-1.5c0-0.1,0-0.1,0.1-0.1h0.6c0.1,0,0.1,0,0.1,0.1v1.5
			c0,0,0,0.1,0.1,0.1h1.2c0.1,0,0.1,0,0.1,0.1v0.5C80,34.7,80,34.7,79.9,34.7z"/>
		<path class="st1" d="M84.5,39.6c0.2-0.2,0.4-0.4,0.5-0.7c0-0.1,0.1-0.1,0.2-0.1l0.6,0.1c0,0,0.1,0,0.1,0.1s0,0.1,0,0.1
			c-0.1,0.5-0.4,0.9-0.8,1.1c-0.4,0.3-0.9,0.4-1.4,0.4c-0.6,0-1.2-0.2-1.5-0.5c-0.4-0.3-0.6-0.8-0.7-1.4c0-0.2-0.1-0.5-0.1-0.8
			c0-0.3,0-0.5,0-0.7s0-0.3,0-0.4c0-0.4,0-0.8,0.1-1.1c0.1-0.6,0.3-1.1,0.7-1.4c0.4-0.4,0.9-0.5,1.6-0.5c0.7,0,1.2,0.2,1.6,0.6
			c0.4,0.4,0.7,0.9,0.7,1.5c0,0.3,0,0.8,0,1.6c0,0.1,0,0.1-0.1,0.1h-3.6c0,0-0.1,0-0.1,0.1c0,0.3,0,0.6,0,0.9c0,0.4,0.2,0.7,0.4,0.9
			c0.3,0.2,0.6,0.3,1,0.3C84,39.9,84.3,39.8,84.5,39.6z M82.6,35c-0.2,0.2-0.4,0.5-0.4,0.9c0,0.4,0,0.7,0,0.9c0,0,0,0.1,0.1,0.1H85
			c0,0,0.1,0,0.1-0.1c0-0.3,0-0.6-0.1-0.9c0-0.4-0.2-0.7-0.4-0.9c-0.2-0.2-0.6-0.4-0.9-0.4C83.2,34.7,82.9,34.8,82.6,35z"/>
		<path class="st1" d="M94.9,34.5c0.3,0.4,0.5,0.9,0.5,1.6v4.4c0,0.1,0,0.1-0.1,0.1h-0.7c-0.1,0-0.1,0-0.1-0.1v-4.2
			c0-0.5-0.1-0.8-0.3-1.1c-0.2-0.3-0.5-0.4-0.9-0.4c-0.4,0-0.7,0.1-0.9,0.4s-0.4,0.6-0.4,1.1v4.3c0,0.1,0,0.1-0.1,0.1h-0.7
			c-0.1,0-0.1,0-0.1-0.1v-4.2c0-0.5-0.1-0.8-0.3-1.1c-0.2-0.3-0.5-0.4-0.9-0.4c-0.4,0-0.7,0.1-0.9,0.4s-0.4,0.6-0.4,1.1v4.3
			c0,0.1,0,0.1-0.1,0.1h-0.7c-0.1,0-0.1,0-0.1-0.1v-6.3c0-0.1,0-0.1,0.1-0.1h0.7c0.1,0,0.1,0,0.1,0.1v0.5c0,0,0,0,0,0c0,0,0,0,0,0
			c0.2-0.2,0.4-0.4,0.7-0.5c0.3-0.1,0.6-0.2,0.9-0.2c0.4,0,0.7,0.1,1,0.3s0.5,0.4,0.7,0.7c0,0,0,0,0.1,0c0.2-0.3,0.4-0.6,0.7-0.7
			c0.3-0.2,0.6-0.2,1-0.2C94.1,33.9,94.5,34.1,94.9,34.5z"/>
		<path class="st1" d="M100.9,34.5c0.4,0.4,0.6,0.9,0.6,1.6v4.4c0,0.1,0,0.1-0.1,0.1h-0.7c-0.1,0-0.1,0-0.1-0.1V40c0,0,0,0,0,0
			c0,0,0,0,0,0c-0.2,0.2-0.4,0.4-0.7,0.5s-0.6,0.2-1,0.2c-0.5,0-1-0.1-1.4-0.4c-0.4-0.3-0.6-0.8-0.6-1.4c0-0.7,0.2-1.2,0.7-1.6
			c0.4-0.4,1.1-0.5,1.8-0.5h1.2c0,0,0.1,0,0.1-0.1v-0.5c0-0.4-0.1-0.8-0.3-1c-0.2-0.3-0.5-0.4-1-0.4c-0.3,0-0.6,0.1-0.8,0.3
			c-0.2,0.2-0.4,0.4-0.4,0.7c0,0.1-0.1,0.1-0.1,0.1l-0.7,0c0,0-0.1,0-0.1,0c0,0,0-0.1,0-0.1c0.1-0.5,0.3-0.9,0.7-1.2
			c0.4-0.3,0.9-0.5,1.5-0.5C99.9,33.9,100.5,34.1,100.9,34.5z M100.1,39.5c0.3-0.2,0.5-0.6,0.5-1v-1.1c0,0,0-0.1-0.1-0.1h-1.1
			c-0.5,0-0.9,0.1-1.2,0.3c-0.3,0.2-0.4,0.6-0.4,1c0,0.4,0.1,0.7,0.3,0.9c0.2,0.2,0.5,0.3,0.9,0.3C99.4,39.9,99.7,39.7,100.1,39.5z"
			/>
		<path class="st1" d="M109.4,31.4h0.7c0.1,0,0.1,0,0.1,0.1v8.9c0,0.1,0,0.1-0.1,0.1h-0.7c-0.1,0-0.1,0-0.1-0.1v-0.5c0,0,0,0,0,0
			s0,0,0,0c-0.3,0.5-0.8,0.8-1.5,0.8c-0.5,0-1-0.1-1.3-0.4c-0.3-0.3-0.6-0.8-0.7-1.4c-0.1-0.5-0.2-1-0.2-1.5c0-0.6,0-1.1,0.1-1.5
			c0.1-0.7,0.4-1.1,0.7-1.4c0.4-0.3,0.8-0.5,1.4-0.5c0.4,0,0.7,0.1,0.9,0.2s0.4,0.3,0.6,0.6c0,0,0,0,0,0c0,0,0,0,0,0v-3
			C109.3,31.5,109.3,31.4,109.4,31.4z M109.3,37.3c0-0.7-0.1-1.3-0.2-1.7c-0.1-0.3-0.2-0.5-0.4-0.7c-0.2-0.2-0.4-0.2-0.7-0.2
			c-0.6,0-1,0.3-1.2,0.9c-0.2,0.4-0.2,1-0.2,1.7s0.1,1.2,0.2,1.6c0.1,0.3,0.3,0.6,0.5,0.7s0.5,0.2,0.8,0.2c0.3,0,0.5-0.1,0.7-0.2
			c0.2-0.2,0.3-0.4,0.4-0.7C109.2,38.5,109.3,38,109.3,37.3z"/>
		<path class="st1" d="M115.1,39.6c0.2-0.2,0.4-0.4,0.5-0.7c0-0.1,0.1-0.1,0.2-0.1l0.6,0.1c0,0,0.1,0,0.1,0.1c0,0,0,0.1,0,0.1
			c-0.1,0.5-0.4,0.9-0.8,1.1c-0.4,0.3-0.9,0.4-1.4,0.4c-0.6,0-1.2-0.2-1.5-0.5c-0.4-0.3-0.6-0.8-0.7-1.4c0-0.2-0.1-0.5-0.1-0.8
			c0-0.3,0-0.5,0-0.7s0-0.3,0-0.4c0-0.4,0-0.8,0.1-1.1c0.1-0.6,0.3-1.1,0.7-1.4c0.4-0.4,0.9-0.5,1.6-0.5c0.7,0,1.2,0.2,1.6,0.6
			s0.7,0.9,0.7,1.5c0,0.3,0,0.8,0,1.6c0,0.1,0,0.1-0.1,0.1h-3.6c0,0-0.1,0-0.1,0.1c0,0.3,0,0.6,0,0.9c0,0.4,0.2,0.7,0.4,0.9
			c0.3,0.2,0.6,0.3,1,0.3C114.6,39.9,114.9,39.8,115.1,39.6z M113.3,35c-0.2,0.2-0.4,0.5-0.4,0.9c0,0.4,0,0.7,0,0.9
			c0,0,0,0.1,0.1,0.1h2.7c0,0,0.1,0,0.1-0.1c0-0.3,0-0.6-0.1-0.9c0-0.4-0.2-0.7-0.4-0.9c-0.2-0.2-0.6-0.4-0.9-0.4
			C113.8,34.7,113.5,34.8,113.3,35z"/>
		<path class="st1" d="M120.9,40.4v-8.9c0-0.1,0-0.1,0.1-0.1h0.7c0.1,0,0.1,0,0.1,0.1v8.9c0,0.1,0,0.1-0.1,0.1h-0.7
			C121,40.6,120.9,40.5,120.9,40.4z"/>
		<path class="st1" d="M127.8,34.5c0.4,0.4,0.5,0.9,0.5,1.6v4.4c0,0.1,0,0.1-0.1,0.1h-0.7c-0.1,0-0.1,0-0.1-0.1v-4.3
			c0-0.5-0.1-0.8-0.4-1.1c-0.2-0.3-0.6-0.4-1-0.4s-0.7,0.1-1,0.4c-0.2,0.3-0.4,0.6-0.4,1.1v4.2c0,0.1,0,0.1-0.1,0.1H124
			c-0.1,0-0.1,0-0.1-0.1v-6.3c0-0.1,0-0.1,0.1-0.1h0.7c0.1,0,0.1,0,0.1,0.1v0.5c0,0,0,0,0,0c0,0,0,0,0,0c0.3-0.5,0.9-0.8,1.6-0.8
			C127,33.9,127.5,34.1,127.8,34.5z"/>
		<path class="st1" d="M131.7,32.5c-0.2,0.2-0.2,0.6-0.2,1.1v0.3c0,0,0,0.1,0.1,0.1h1.2c0.1,0,0.1,0,0.1,0.1v0.5
			c0,0.1,0,0.1-0.1,0.1h-1.2c0,0-0.1,0-0.1,0.1v5.6c0,0.1,0,0.1-0.1,0.1h-0.7c-0.1,0-0.1,0-0.1-0.1v-5.6c0,0,0-0.1-0.1-0.1h-0.7
			c-0.1,0-0.1,0-0.1-0.1v-0.5c0-0.1,0-0.1,0.1-0.1h0.7c0,0,0.1,0,0.1-0.1v-0.4c0-0.8,0.1-1.3,0.4-1.7c0.3-0.3,0.8-0.5,1.5-0.5h0.3
			c0.1,0,0.1,0,0.1,0.1v0.5c0,0.1,0,0.1-0.1,0.1h-0.2C132.1,32.2,131.8,32.3,131.7,32.5z"/>
		<path class="st1" d="M134.6,40.1c-0.4-0.3-0.7-0.8-0.7-1.4c-0.1-0.4-0.1-0.9-0.1-1.5c0-0.6,0-1.1,0.1-1.5c0.1-0.6,0.3-1,0.7-1.4
			c0.4-0.3,0.9-0.5,1.6-0.5c0.6,0,1.2,0.2,1.6,0.5c0.4,0.3,0.7,0.8,0.7,1.4c0.1,0.3,0.1,0.8,0.1,1.5c0,0.7,0,1.2-0.1,1.5
			c-0.1,0.6-0.3,1-0.7,1.4s-0.9,0.5-1.6,0.5C135.5,40.7,135,40.5,134.6,40.1z M137.1,39.5c0.3-0.2,0.4-0.5,0.5-0.9
			c0-0.3,0.1-0.8,0.1-1.3c0-0.6,0-1-0.1-1.3c0-0.4-0.2-0.7-0.4-0.9c-0.3-0.2-0.6-0.3-1-0.3c-0.4,0-0.7,0.1-1,0.3
			c-0.3,0.2-0.4,0.5-0.5,0.9c0,0.3-0.1,0.8-0.1,1.3s0,1,0.1,1.3c0,0.4,0.2,0.7,0.4,0.9c0.3,0.2,0.6,0.3,1,0.3
			C136.5,39.9,136.9,39.7,137.1,39.5z"/>
		<path class="st1" d="M143.3,34.1c0.1,0,0.1,0.1,0.1,0.2l-0.2,0.7c0,0.1-0.1,0.1-0.2,0.1c-0.1-0.1-0.3-0.1-0.5-0.1l-0.2,0
			c-0.4,0-0.7,0.2-1,0.5s-0.4,0.7-0.4,1.2v3.9c0,0.1,0,0.1-0.1,0.1h-0.7c-0.1,0-0.1,0-0.1-0.1v-6.3c0-0.1,0-0.1,0.1-0.1h0.7
			c0.1,0,0.1,0,0.1,0.1v0.8c0,0,0,0,0,0c0,0,0,0,0,0c0.1-0.3,0.3-0.6,0.6-0.8c0.2-0.2,0.5-0.3,0.9-0.3
			C142.9,33.9,143.1,34,143.3,34.1z"/>
		<path class="st1" d="M151.8,34.5c0.3,0.4,0.5,0.9,0.5,1.6v4.4c0,0.1,0,0.1-0.1,0.1h-0.7c-0.1,0-0.1,0-0.1-0.1v-4.2
			c0-0.5-0.1-0.8-0.3-1.1c-0.2-0.3-0.5-0.4-0.9-0.4c-0.4,0-0.7,0.1-0.9,0.4c-0.2,0.3-0.4,0.6-0.4,1.1v4.3c0,0.1,0,0.1-0.1,0.1h-0.7
			c-0.1,0-0.1,0-0.1-0.1v-4.2c0-0.5-0.1-0.8-0.3-1.1c-0.2-0.3-0.5-0.4-0.9-0.4c-0.4,0-0.7,0.1-0.9,0.4s-0.4,0.6-0.4,1.1v4.3
			c0,0.1,0,0.1-0.1,0.1h-0.7c-0.1,0-0.1,0-0.1-0.1v-6.3c0-0.1,0-0.1,0.1-0.1h0.7c0.1,0,0.1,0,0.1,0.1v0.5c0,0,0,0,0,0c0,0,0,0,0,0
			c0.2-0.2,0.4-0.4,0.7-0.5c0.3-0.1,0.6-0.2,0.9-0.2c0.4,0,0.7,0.1,1,0.3c0.3,0.2,0.5,0.4,0.7,0.7c0,0,0,0,0.1,0
			c0.2-0.3,0.4-0.6,0.7-0.7c0.3-0.2,0.6-0.2,1-0.2C151,33.9,151.5,34.1,151.8,34.5z"/>
		<path class="st1" d="M157.8,34.5c0.4,0.4,0.6,0.9,0.6,1.6v4.4c0,0.1,0,0.1-0.1,0.1h-0.7c-0.1,0-0.1,0-0.1-0.1V40c0,0,0,0,0,0
			c0,0,0,0,0,0c-0.2,0.2-0.4,0.4-0.7,0.5s-0.6,0.2-1,0.2c-0.5,0-1-0.1-1.4-0.4c-0.4-0.3-0.6-0.8-0.6-1.4c0-0.7,0.2-1.2,0.7-1.6
			s1.1-0.5,1.8-0.5h1.2c0,0,0.1,0,0.1-0.1v-0.5c0-0.4-0.1-0.8-0.3-1c-0.2-0.3-0.5-0.4-1-0.4c-0.3,0-0.6,0.1-0.8,0.3
			c-0.2,0.2-0.4,0.4-0.4,0.7c0,0.1-0.1,0.1-0.1,0.1l-0.7,0c0,0-0.1,0-0.1,0c0,0,0-0.1,0-0.1c0.1-0.5,0.3-0.9,0.7-1.2
			c0.4-0.3,0.9-0.5,1.5-0.5C156.9,33.9,157.4,34.1,157.8,34.5z M157,39.5c0.3-0.2,0.5-0.6,0.5-1v-1.1c0,0,0-0.1-0.1-0.1h-1.1
			c-0.5,0-0.9,0.1-1.2,0.3c-0.3,0.2-0.4,0.6-0.4,1c0,0.4,0.1,0.7,0.3,0.9c0.2,0.2,0.5,0.3,0.9,0.3C156.3,39.9,156.7,39.7,157,39.5z"
			/>
		<path class="st1" d="M160.8,40.1c-0.4-0.3-0.7-0.8-0.7-1.4c-0.1-0.4-0.1-0.9-0.1-1.5c0-0.4,0-0.9,0.1-1.5c0.1-0.6,0.3-1,0.7-1.4
			c0.4-0.3,0.9-0.5,1.5-0.5s1.1,0.2,1.6,0.5s0.7,0.7,0.7,1.2l0,0.3v0c0,0,0,0.1,0,0.1s0,0-0.1,0l-0.7,0c-0.1,0-0.1,0-0.1-0.1
			c0-0.1,0-0.1,0-0.2c0-0.3-0.2-0.6-0.4-0.8s-0.6-0.3-0.9-0.3c-0.4,0-0.7,0.1-0.9,0.4c-0.2,0.2-0.4,0.5-0.4,0.9
			c0,0.4-0.1,0.8-0.1,1.3c0,0.5,0,1,0.1,1.3c0,0.4,0.2,0.7,0.4,0.9c0.2,0.2,0.6,0.3,0.9,0.3s0.7-0.1,1-0.3s0.4-0.5,0.4-0.8l0-0.1
			c0-0.1,0.1-0.1,0.1-0.1l0.7,0.1c0.1,0,0.1,0.1,0.1,0.1v0.1c0,0,0,0.1,0,0.2c-0.1,0.5-0.3,0.9-0.7,1.3c-0.4,0.3-0.9,0.5-1.6,0.5
			S161.2,40.5,160.8,40.1z"/>
		<path class="st1" d="M166.2,32.6c-0.1-0.1-0.2-0.3-0.2-0.5c0-0.2,0.1-0.4,0.2-0.5s0.3-0.2,0.5-0.2c0.2,0,0.4,0.1,0.5,0.2
			c0.1,0.1,0.2,0.3,0.2,0.5c0,0.2-0.1,0.4-0.2,0.5c-0.1,0.1-0.3,0.2-0.5,0.2C166.5,32.8,166.3,32.7,166.2,32.6z M166.2,40.4v-6.3
			c0-0.1,0-0.1,0.1-0.1h0.7c0.1,0,0.1,0,0.1,0.1v6.3c0,0.1,0,0.1-0.1,0.1h-0.7C166.3,40.6,166.2,40.5,166.2,40.4z"/>
		<path class="st1" d="M169.8,40.1c-0.4-0.3-0.7-0.8-0.7-1.4c-0.1-0.4-0.1-0.9-0.1-1.5c0-0.6,0-1.1,0.1-1.5c0.1-0.6,0.3-1,0.7-1.4
			c0.4-0.3,0.9-0.5,1.6-0.5c0.6,0,1.2,0.2,1.6,0.5c0.4,0.3,0.7,0.8,0.7,1.4c0.1,0.3,0.1,0.8,0.1,1.5c0,0.7,0,1.2-0.1,1.5
			c-0.1,0.6-0.3,1-0.7,1.4s-0.9,0.5-1.6,0.5C170.7,40.7,170.2,40.5,169.8,40.1z M172.3,39.5c0.3-0.2,0.4-0.5,0.5-0.9
			c0-0.3,0.1-0.8,0.1-1.3c0-0.6,0-1-0.1-1.3c0-0.4-0.2-0.7-0.4-0.9c-0.3-0.2-0.6-0.3-1-0.3c-0.4,0-0.7,0.1-1,0.3
			c-0.3,0.2-0.4,0.5-0.5,0.9c0,0.3-0.1,0.8-0.1,1.3s0,1,0.1,1.3c0,0.4,0.2,0.7,0.4,0.9c0.3,0.2,0.6,0.3,1,0.3
			C171.7,39.9,172,39.7,172.3,39.5z M170.8,33.1c0,0,0-0.1,0-0.1l0.8-1.4c0-0.1,0.1-0.1,0.2-0.1h0.6c0.1,0,0.1,0,0.1,0
			c0,0,0,0.1,0,0.1l-0.9,1.4c0,0.1-0.1,0.1-0.2,0.1h-0.4C170.8,33.1,170.8,33.1,170.8,33.1z"/>
		<path class="st1" d="M179.3,34.5c0.4,0.4,0.5,0.9,0.5,1.6v4.4c0,0.1,0,0.1-0.1,0.1H179c-0.1,0-0.1,0-0.1-0.1v-4.3
			c0-0.5-0.1-0.8-0.4-1.1c-0.2-0.3-0.6-0.4-1-0.4s-0.7,0.1-1,0.4c-0.2,0.3-0.4,0.6-0.4,1.1v4.2c0,0.1,0,0.1-0.1,0.1h-0.7
			c-0.1,0-0.1,0-0.1-0.1v-6.3c0-0.1,0-0.1,0.1-0.1h0.7c0.1,0,0.1,0,0.1,0.1v0.5c0,0,0,0,0,0c0,0,0,0,0,0c0.3-0.5,0.9-0.8,1.6-0.8
			C178.5,33.9,178.9,34.1,179.3,34.5z"/>
	</g>
	<g class="st0">
		<path class="st1" d="M66,43.4h0.7c0.1,0,0.1,0,0.1,0.1v8.9c0,0.1,0,0.1-0.1,0.1H66c-0.1,0-0.1,0-0.1-0.1v-0.5c0,0,0,0,0,0s0,0,0,0
			c-0.3,0.5-0.8,0.8-1.5,0.8c-0.5,0-1-0.1-1.3-0.4c-0.3-0.3-0.6-0.8-0.7-1.4c-0.1-0.5-0.2-1-0.2-1.5c0-0.6,0-1.1,0.1-1.5
			c0.1-0.7,0.4-1.1,0.7-1.4c0.4-0.3,0.8-0.5,1.4-0.5c0.4,0,0.7,0.1,0.9,0.2s0.4,0.3,0.6,0.6c0,0,0,0,0,0c0,0,0,0,0,0v-3
			C65.9,43.5,65.9,43.4,66,43.4z M65.8,49.3c0-0.7-0.1-1.3-0.2-1.7c-0.1-0.3-0.2-0.5-0.4-0.7c-0.2-0.2-0.4-0.2-0.7-0.2
			c-0.6,0-1,0.3-1.2,0.9c-0.2,0.4-0.2,1-0.2,1.7s0.1,1.2,0.2,1.6c0.1,0.3,0.3,0.6,0.5,0.7s0.5,0.2,0.8,0.2c0.3,0,0.5-0.1,0.7-0.2
			c0.2-0.2,0.3-0.4,0.4-0.7C65.8,50.5,65.8,50,65.8,49.3z"/>
		<path class="st1" d="M71.7,51.6c0.2-0.2,0.4-0.4,0.5-0.7c0-0.1,0.1-0.1,0.2-0.1l0.6,0.1c0,0,0.1,0,0.1,0.1s0,0.1,0,0.1
			c-0.1,0.5-0.4,0.9-0.8,1.1c-0.4,0.3-0.9,0.4-1.4,0.4c-0.6,0-1.2-0.2-1.5-0.5c-0.4-0.3-0.6-0.8-0.7-1.4c0-0.2-0.1-0.5-0.1-0.8
			c0-0.3,0-0.5,0-0.7s0-0.3,0-0.4c0-0.4,0-0.8,0.1-1.1c0.1-0.6,0.3-1.1,0.7-1.4c0.4-0.4,0.9-0.5,1.6-0.5c0.7,0,1.2,0.2,1.6,0.6
			c0.4,0.4,0.7,0.9,0.7,1.5c0,0.3,0,0.8,0,1.6c0,0.1,0,0.1-0.1,0.1h-3.6c0,0-0.1,0-0.1,0.1c0,0.3,0,0.6,0,0.9c0,0.4,0.2,0.7,0.4,0.9
			c0.3,0.2,0.6,0.3,1,0.3C71.2,51.9,71.4,51.8,71.7,51.6z M69.8,47c-0.2,0.2-0.4,0.5-0.4,0.9c0,0.4,0,0.7,0,0.9c0,0,0,0.1,0.1,0.1
			h2.7c0,0,0.1,0,0.1-0.1c0-0.3,0-0.6-0.1-0.9c0-0.4-0.2-0.7-0.4-0.9c-0.2-0.2-0.6-0.4-0.9-0.4C70.4,46.7,70.1,46.8,69.8,47z"/>
	</g>
	<g class="st0">
		<path class="st1" d="M81.3,43.5c0,0,0,0.1,0,0.1v1c0,0,0,0.1,0,0.1s-0.1,0-0.1,0h-2c0,0-0.1,0-0.1,0.1v7.6c0,0,0,0.1,0,0.1
			c0,0-0.1,0-0.1,0h-1.2c0,0-0.1,0-0.1,0c0,0,0-0.1,0-0.1v-7.6c0,0,0-0.1-0.1-0.1h-1.9c0,0-0.1,0-0.1,0c0,0,0-0.1,0-0.1v-1
			c0,0,0-0.1,0-0.1c0,0,0.1,0,0.1,0h5.6C81.2,43.4,81.2,43.5,81.3,43.5z"/>
		<path class="st1" d="M85.4,46c0.1,0,0.1,0.1,0.1,0.2l-0.2,1.2c0,0.1-0.1,0.1-0.2,0.1c-0.1,0-0.2-0.1-0.4-0.1c-0.1,0-0.2,0-0.3,0
			c-0.3,0-0.5,0.2-0.7,0.4s-0.3,0.5-0.3,0.9v3.7c0,0,0,0.1,0,0.1c0,0-0.1,0-0.1,0H82c0,0-0.1,0-0.1,0c0,0,0-0.1,0-0.1v-6.3
			c0,0,0-0.1,0-0.1c0,0,0.1,0,0.1,0h1.2c0,0,0.1,0,0.1,0s0,0.1,0,0.1v0.6c0,0,0,0.1,0,0.1c0,0,0,0,0,0c0.3-0.5,0.8-0.8,1.3-0.8
			C85,45.8,85.2,45.9,85.4,46z"/>
		<path class="st1" d="M90,46.1c0.4,0.2,0.7,0.4,0.9,0.8c0.2,0.3,0.3,0.7,0.3,1.1v4.4c0,0,0,0.1,0,0.1c0,0-0.1,0-0.1,0h-1.2
			c0,0-0.1,0-0.1,0c0,0,0-0.1,0-0.1v-0.3c0,0,0,0,0-0.1c0,0,0,0-0.1,0c-0.4,0.4-0.9,0.6-1.6,0.6c-0.6,0-1.1-0.2-1.5-0.5
			c-0.4-0.3-0.6-0.8-0.6-1.5c0-0.7,0.2-1.3,0.7-1.6s1.1-0.5,1.9-0.5h1c0,0,0.1,0,0.1-0.1v-0.3c0-0.3-0.1-0.6-0.3-0.8
			c-0.2-0.2-0.4-0.3-0.7-0.3c-0.3,0-0.5,0.1-0.6,0.2s-0.3,0.3-0.3,0.5c0,0.1-0.1,0.1-0.2,0.1l-1.3-0.1c0,0-0.1,0-0.1,0
			c0,0,0-0.1,0-0.1c0.1-0.6,0.3-1,0.8-1.4c0.5-0.3,1-0.5,1.7-0.5C89.2,45.8,89.6,45.9,90,46.1z M89.3,51.1c0.3-0.2,0.4-0.5,0.4-0.8
			v-0.7c0,0,0-0.1-0.1-0.1h-0.9c-0.4,0-0.7,0.1-0.9,0.2c-0.2,0.2-0.3,0.4-0.3,0.7c0,0.3,0.1,0.5,0.3,0.6c0.2,0.1,0.4,0.2,0.7,0.2
			C88.8,51.4,89.1,51.3,89.3,51.1z"/>
		<path class="st1" d="M97,46.4c0.4,0.4,0.5,1,0.5,1.7v4.3c0,0,0,0.1,0,0.1c0,0-0.1,0-0.1,0h-1.2c0,0-0.1,0-0.1,0c0,0,0-0.1,0-0.1
			v-4.1c0-0.4-0.1-0.6-0.3-0.8c-0.2-0.2-0.4-0.3-0.7-0.3c-0.3,0-0.6,0.1-0.7,0.3c-0.2,0.2-0.3,0.5-0.3,0.9v4.1c0,0,0,0.1,0,0.1
			c0,0-0.1,0-0.1,0h-1.2c0,0-0.1,0-0.1,0c0,0,0-0.1,0-0.1v-6.3c0,0,0-0.1,0-0.1s0.1,0,0.1,0h1.2c0,0,0.1,0,0.1,0c0,0,0,0.1,0,0.1
			v0.3c0,0,0,0,0,0.1c0,0,0,0,0.1,0c0.3-0.4,0.8-0.6,1.4-0.6C96.2,45.8,96.6,46,97,46.4z"/>
		<path class="st1" d="M99.3,52.1c-0.5-0.3-0.7-0.8-0.7-1.3v-0.1c0,0,0-0.1,0-0.1s0.1,0,0.1,0h1.1c0,0,0.1,0,0.1,0s0,0.1,0,0.1v0
			c0,0.2,0.1,0.4,0.3,0.5c0.2,0.2,0.4,0.2,0.7,0.2c0.3,0,0.5-0.1,0.7-0.2c0.2-0.1,0.3-0.3,0.3-0.5c0-0.2-0.1-0.4-0.3-0.5
			c-0.2-0.1-0.5-0.2-0.8-0.4l-0.3-0.1c-0.6-0.2-1.1-0.4-1.4-0.7c-0.4-0.3-0.5-0.7-0.5-1.3c0-0.6,0.2-1.1,0.7-1.4s1-0.5,1.7-0.5
			c0.7,0,1.3,0.2,1.8,0.5c0.4,0.4,0.7,0.8,0.7,1.4v0c0,0,0,0.1,0,0.1c0,0-0.1,0-0.1,0h-1.1c0,0-0.1,0-0.1,0c0,0,0-0.1,0-0.1v-0.1
			c0-0.2-0.1-0.4-0.3-0.5c-0.2-0.1-0.4-0.2-0.7-0.2c-0.3,0-0.5,0.1-0.7,0.2c-0.2,0.1-0.3,0.3-0.3,0.5c0,0.2,0.1,0.3,0.2,0.4
			s0.3,0.2,0.4,0.3s0.4,0.2,0.8,0.3c0.4,0.1,0.8,0.3,1,0.4c0.3,0.1,0.5,0.4,0.7,0.6c0.2,0.3,0.3,0.6,0.3,1c0,0.6-0.2,1.1-0.7,1.4
			c-0.4,0.3-1,0.5-1.8,0.5C100.4,52.6,99.8,52.5,99.3,52.1z"/>
		<path class="st1" d="M109.9,49.3c0,0.5,0,1-0.1,1.4c-0.3,1.3-1,2-2.1,2c-0.6,0-1.1-0.2-1.4-0.6c0,0,0,0-0.1,0c0,0,0,0,0,0v2.8
			c0,0,0,0.1,0,0.1s-0.1,0-0.1,0h-1.2c0,0-0.1,0-0.1,0c0,0,0-0.1,0-0.1v-8.8c0,0,0-0.1,0-0.1c0,0,0.1,0,0.1,0h1.2c0,0,0.1,0,0.1,0
			s0,0.1,0,0.1v0.3c0,0,0,0,0,0.1c0,0,0,0,0.1,0c0.3-0.4,0.8-0.6,1.4-0.6c0.5,0,1,0.2,1.3,0.5c0.3,0.3,0.6,0.8,0.7,1.5
			C109.9,48.2,109.9,48.7,109.9,49.3z M108.4,49.2c0-0.6,0-1-0.1-1.3c-0.2-0.6-0.5-0.8-1-0.8c-0.5,0-0.8,0.3-0.9,0.8
			c-0.1,0.3-0.1,0.7-0.1,1.3c0,0.6,0,1,0.1,1.3c0.1,0.5,0.4,0.8,0.9,0.8c0.5,0,0.8-0.3,1-0.8C108.4,50.3,108.4,49.8,108.4,49.2z"/>
		<path class="st1" d="M112,52.1c-0.5-0.4-0.7-0.9-0.8-1.5c-0.1-0.4-0.1-0.9-0.1-1.3c0-0.5,0-1,0.1-1.4c0.1-0.6,0.4-1.1,0.8-1.5
			c0.5-0.4,1-0.6,1.7-0.6c0.7,0,1.3,0.2,1.7,0.6c0.5,0.4,0.7,0.9,0.8,1.5c0.1,0.4,0.1,0.9,0.1,1.4c0,0.5,0,1-0.1,1.3
			c-0.1,0.7-0.4,1.2-0.8,1.5c-0.5,0.4-1,0.6-1.7,0.6S112.4,52.5,112,52.1z M114.4,51.1c0.2-0.2,0.3-0.4,0.4-0.8
			c0-0.5,0.1-0.8,0.1-1.1c0-0.3,0-0.7-0.1-1.1c0-0.3-0.2-0.6-0.4-0.7c-0.2-0.2-0.4-0.3-0.7-0.3c-0.3,0-0.5,0.1-0.7,0.3
			c-0.2,0.2-0.3,0.4-0.4,0.7c0,0.3-0.1,0.7-0.1,1.1c0,0.4,0,0.8,0.1,1.1c0,0.3,0.2,0.6,0.4,0.8c0.2,0.2,0.4,0.3,0.7,0.3
			C114,51.4,114.2,51.3,114.4,51.1z"/>
		<path class="st1" d="M121.1,46c0.1,0,0.1,0.1,0.1,0.2l-0.2,1.2c0,0.1-0.1,0.1-0.2,0.1c-0.1,0-0.2-0.1-0.4-0.1c-0.1,0-0.2,0-0.3,0
			c-0.3,0-0.5,0.2-0.7,0.4s-0.3,0.5-0.3,0.9v3.7c0,0,0,0.1,0,0.1c0,0-0.1,0-0.1,0h-1.2c0,0-0.1,0-0.1,0c0,0,0-0.1,0-0.1v-6.3
			c0,0,0-0.1,0-0.1c0,0,0.1,0,0.1,0h1.2c0,0,0.1,0,0.1,0s0,0.1,0,0.1v0.6c0,0,0,0.1,0,0.1c0,0,0,0,0,0c0.3-0.5,0.8-0.8,1.3-0.8
			C120.7,45.8,120.9,45.9,121.1,46z"/>
		<path class="st1" d="M125.2,47c0,0-0.1,0-0.1,0H124c0,0-0.1,0-0.1,0.1v3.3c0,0.3,0.1,0.5,0.2,0.7c0.1,0.1,0.3,0.2,0.6,0.2h0.2
			c0,0,0.1,0,0.1,0c0,0,0,0.1,0,0.1v1c0,0.1-0.1,0.2-0.2,0.2h-0.5c-0.6,0-1.1-0.1-1.4-0.3c-0.3-0.2-0.5-0.7-0.5-1.3v-3.8
			c0,0,0-0.1-0.1-0.1h-0.6c0,0-0.1,0-0.1,0s0-0.1,0-0.1v-0.8c0,0,0-0.1,0-0.1s0.1,0,0.1,0h0.6c0,0,0.1,0,0.1-0.1v-1.5
			c0,0,0-0.1,0-0.1c0,0,0.1,0,0.1,0h1.1c0,0,0.1,0,0.1,0c0,0,0,0.1,0,0.1v1.5c0,0,0,0.1,0.1,0.1h1.1c0,0,0.1,0,0.1,0
			c0,0,0,0.1,0,0.1v0.8C125.2,46.9,125.2,47,125.2,47z"/>
		<path class="st1" d="M131.4,49.1l0,0.6c0,0.1-0.1,0.2-0.2,0.2h-3.5c0,0-0.1,0-0.1,0.1c0,0.2,0,0.4,0.1,0.5c0,0.3,0.2,0.5,0.4,0.7
			c0.2,0.2,0.5,0.3,0.8,0.3c0.3,0,0.5-0.1,0.7-0.2c0.2-0.1,0.3-0.3,0.4-0.5c0-0.1,0.1-0.1,0.2-0.1l1.1,0.2c0.1,0,0.1,0.1,0.1,0.2
			c-0.2,0.5-0.5,1-0.9,1.2s-0.9,0.4-1.5,0.4c-0.7,0-1.3-0.2-1.7-0.5c-0.4-0.3-0.7-0.8-0.8-1.4c0-0.2-0.1-0.5-0.1-0.7
			c0-0.3,0-0.6,0-1c0-0.5,0-0.8,0.1-1c0.1-0.6,0.4-1.1,0.8-1.5c0.5-0.4,1-0.6,1.7-0.6c0.8,0,1.4,0.2,1.8,0.6c0.5,0.4,0.7,1,0.8,1.7
			C131.4,48.4,131.4,48.7,131.4,49.1z M128.1,47.4c-0.2,0.2-0.3,0.4-0.3,0.7c0,0.2,0,0.4,0,0.7c0,0,0,0.1,0.1,0.1h2.1
			c0,0,0.1,0,0.1-0.1c0-0.3,0-0.5-0.1-0.6c0-0.3-0.1-0.5-0.3-0.7c-0.2-0.2-0.4-0.3-0.7-0.3C128.5,47.1,128.2,47.2,128.1,47.4z"/>
		<path class="st1" d="M135,55.1c0,0,0-0.1,0-0.1v-0.9c0-0.1,0-0.2,0.1-0.2c0.3,0,0.6,0,0.8-0.1s0.3-0.2,0.4-0.4
			c0.1-0.2,0.2-0.5,0.3-0.8c0,0,0,0,0-0.1l-1.9-6.4l0-0.1c0-0.1,0-0.1,0.1-0.1h1.3c0.1,0,0.1,0,0.2,0.1l1,4.5c0,0,0,0.1,0,0.1
			s0,0,0-0.1l1-4.4c0-0.1,0.1-0.1,0.2-0.1l1.3,0c0.1,0,0.1,0,0.1,0c0,0,0,0.1,0,0.1l-2,6.8c-0.2,0.6-0.4,1.1-0.6,1.4
			c-0.2,0.3-0.5,0.5-0.8,0.7s-0.8,0.2-1.5,0.2L135,55.1C135.1,55.1,135.1,55.1,135,55.1z"/>
		<path class="st1" d="M144.9,52.3c-0.4-0.2-0.8-0.6-1-1c-0.2-0.4-0.4-0.9-0.4-1.5v-3.7c0-0.6,0.1-1,0.4-1.5c0.2-0.4,0.6-0.8,1-1
			s0.9-0.4,1.5-0.4c0.6,0,1.1,0.1,1.5,0.4s0.8,0.6,1,1c0.2,0.4,0.4,0.9,0.4,1.5v3.7c0,0.6-0.1,1.1-0.4,1.5c-0.2,0.4-0.6,0.8-1,1
			s-0.9,0.4-1.5,0.4C145.9,52.7,145.4,52.6,144.9,52.3z M147.5,51c0.3-0.3,0.4-0.6,0.4-1.1v-3.8c0-0.4-0.1-0.8-0.4-1.1
			s-0.6-0.4-1-0.4c-0.4,0-0.8,0.1-1,0.4c-0.3,0.3-0.4,0.6-0.4,1.1v3.8c0,0.4,0.1,0.8,0.4,1.1c0.3,0.3,0.6,0.4,1,0.4
			C146.9,51.4,147.2,51.2,147.5,51z"/>
		<path class="st1" d="M155.9,49.2c0,0.5,0,1-0.1,1.5c-0.2,0.7-0.4,1.2-0.7,1.5s-0.8,0.5-1.3,0.5c-0.6,0-1.1-0.2-1.4-0.6
			c0,0,0,0-0.1,0s0,0,0,0.1v0.3c0,0,0,0.1,0,0.1c0,0-0.1,0-0.1,0h-1.2c0,0-0.1,0-0.1,0c0,0,0-0.1,0-0.1v-8.8c0,0,0-0.1,0-0.1
			c0,0,0.1,0,0.1,0h1.2c0,0,0.1,0,0.1,0s0,0.1,0,0.1v2.8c0,0,0,0,0,0c0,0,0,0,0.1,0c0.3-0.4,0.8-0.6,1.4-0.6c1.1,0,1.8,0.7,2.1,2
			C155.9,48.2,155.9,48.7,155.9,49.2z M154.4,49.2c0-0.6-0.1-1-0.2-1.4c-0.2-0.5-0.5-0.8-1-0.8s-0.7,0.3-0.9,0.8
			c-0.1,0.3-0.1,0.8-0.1,1.3c0,0.6,0,1,0.1,1.3c0.1,0.5,0.5,0.8,0.9,0.8c0.5,0,0.8-0.3,1-0.8C154.3,50.2,154.4,49.8,154.4,49.2z"/>
		<path class="st1" d="M160.7,46c0.1,0,0.1,0.1,0.1,0.2l-0.2,1.2c0,0.1-0.1,0.1-0.2,0.1c-0.1,0-0.2-0.1-0.4-0.1c-0.1,0-0.2,0-0.3,0
			c-0.3,0-0.5,0.2-0.7,0.4s-0.3,0.5-0.3,0.9v3.7c0,0,0,0.1,0,0.1c0,0-0.1,0-0.1,0h-1.2c0,0-0.1,0-0.1,0c0,0,0-0.1,0-0.1v-6.3
			c0,0,0-0.1,0-0.1c0,0,0.1,0,0.1,0h1.2c0,0,0.1,0,0.1,0s0,0.1,0,0.1v0.6c0,0,0,0.1,0,0.1c0,0,0,0,0,0c0.3-0.5,0.8-0.8,1.3-0.8
			C160.3,45.8,160.5,45.9,160.7,46z"/>
		<path class="st1" d="M165.3,46.1c0.4,0.2,0.7,0.4,0.9,0.8c0.2,0.3,0.3,0.7,0.3,1.1v4.4c0,0,0,0.1,0,0.1c0,0-0.1,0-0.1,0h-1.2
			c0,0-0.1,0-0.1,0c0,0,0-0.1,0-0.1v-0.3c0,0,0,0,0-0.1c0,0,0,0-0.1,0c-0.4,0.4-0.9,0.6-1.6,0.6c-0.6,0-1.1-0.2-1.5-0.5
			c-0.4-0.3-0.6-0.8-0.6-1.5c0-0.7,0.2-1.3,0.7-1.6c0.5-0.4,1.1-0.5,1.9-0.5h1c0,0,0.1,0,0.1-0.1v-0.3c0-0.3-0.1-0.6-0.3-0.8
			c-0.2-0.2-0.4-0.3-0.7-0.3c-0.3,0-0.5,0.1-0.6,0.2c-0.2,0.1-0.3,0.3-0.3,0.5c0,0.1-0.1,0.1-0.2,0.1l-1.3-0.1c0,0-0.1,0-0.1,0
			c0,0,0-0.1,0-0.1c0.1-0.6,0.3-1,0.8-1.4c0.5-0.3,1-0.5,1.7-0.5C164.5,45.8,164.9,45.9,165.3,46.1z M164.6,51.1
			c0.3-0.2,0.4-0.5,0.4-0.8v-0.7c0,0,0-0.1-0.1-0.1h-0.9c-0.4,0-0.7,0.1-0.9,0.2c-0.2,0.2-0.3,0.4-0.3,0.7c0,0.3,0.1,0.5,0.3,0.6
			c0.2,0.1,0.4,0.2,0.7,0.2C164.1,51.4,164.4,51.3,164.6,51.1z"/>
		<path class="st1" d="M168.2,52.1c-0.5-0.3-0.7-0.8-0.7-1.3v-0.1c0,0,0-0.1,0-0.1s0.1,0,0.1,0h1.1c0,0,0.1,0,0.1,0s0,0.1,0,0.1v0
			c0,0.2,0.1,0.4,0.3,0.5c0.2,0.2,0.4,0.2,0.7,0.2c0.3,0,0.5-0.1,0.7-0.2s0.3-0.3,0.3-0.5c0-0.2-0.1-0.4-0.3-0.5
			c-0.2-0.1-0.5-0.2-0.8-0.4l-0.3-0.1c-0.6-0.2-1.1-0.4-1.4-0.7c-0.4-0.3-0.5-0.7-0.5-1.3c0-0.6,0.2-1.1,0.7-1.4
			c0.4-0.4,1-0.5,1.7-0.5c0.7,0,1.3,0.2,1.8,0.5c0.4,0.4,0.7,0.8,0.7,1.4v0c0,0,0,0.1,0,0.1c0,0-0.1,0-0.1,0h-1.1c0,0-0.1,0-0.1,0
			c0,0,0-0.1,0-0.1v-0.1c0-0.2-0.1-0.4-0.3-0.5c-0.2-0.1-0.4-0.2-0.7-0.2c-0.3,0-0.5,0.1-0.7,0.2c-0.2,0.1-0.3,0.3-0.3,0.5
			c0,0.2,0.1,0.3,0.2,0.4c0.1,0.1,0.3,0.2,0.4,0.3c0.2,0.1,0.4,0.2,0.8,0.3c0.4,0.1,0.8,0.3,1,0.4s0.5,0.4,0.7,0.6
			c0.2,0.3,0.3,0.6,0.3,1c0,0.6-0.2,1.1-0.7,1.4c-0.4,0.3-1,0.5-1.8,0.5C169.3,52.6,168.7,52.5,168.2,52.1z"/>
		<path class="st1" d="M180.8,43.8c0.4,0.2,0.7,0.5,0.9,1s0.3,0.9,0.3,1.4c0,0.5-0.1,1-0.3,1.4c-0.2,0.4-0.5,0.7-0.9,0.9
			c-0.4,0.2-0.8,0.3-1.3,0.3h-1.6c0,0-0.1,0-0.1,0.1v3.6c0,0,0,0.1,0,0.1c0,0-0.1,0-0.1,0h-1.2c0,0-0.1,0-0.1,0c0,0,0-0.1,0-0.1
			v-8.8c0,0,0-0.1,0-0.1s0.1,0,0.1,0h3C180,43.4,180.4,43.5,180.8,43.8z M180.2,47.2c0.2-0.3,0.3-0.6,0.3-1c0-0.4-0.1-0.8-0.3-1
			c-0.2-0.3-0.5-0.4-0.9-0.4h-1.4c0,0-0.1,0-0.1,0.1v2.7c0,0,0,0.1,0.1,0.1h1.4C179.6,47.6,179.9,47.4,180.2,47.2z"/>
		<path class="st1" d="M186.6,46c0,0,0.1,0,0.1,0h1.2c0,0,0.1,0,0.1,0s0,0.1,0,0.1v6.3c0,0,0,0.1,0,0.1c0,0-0.1,0-0.1,0h-1.2
			c0,0-0.1,0-0.1,0c0,0,0-0.1,0-0.1V52c0,0,0,0,0,0c0,0,0,0-0.1,0c-0.3,0.4-0.8,0.6-1.4,0.6c-0.6,0-1.1-0.2-1.5-0.5
			s-0.6-0.9-0.6-1.5v-4.5c0,0,0-0.1,0-0.1c0,0,0.1,0,0.1,0h1.2c0,0,0.1,0,0.1,0s0,0.1,0,0.1v4.1c0,0.4,0.1,0.6,0.3,0.9
			c0.2,0.2,0.4,0.3,0.7,0.3s0.6-0.1,0.8-0.3s0.3-0.5,0.3-0.9v-4.1C186.5,46,186.5,46,186.6,46z M184.8,45c0,0,0-0.1,0-0.1l0.7-1.3
			c0-0.1,0.1-0.1,0.2-0.1h1c0.1,0,0.1,0,0.1,0.1c0,0,0,0.1,0,0.1l-0.9,1.3c0,0.1-0.1,0.1-0.2,0.1h-0.8
			C184.9,45.1,184.8,45.1,184.8,45z"/>
		<path class="st1" d="M194.7,49.2c0,0.5,0,1-0.1,1.5c-0.2,0.7-0.4,1.2-0.7,1.5s-0.8,0.5-1.3,0.5c-0.6,0-1.1-0.2-1.4-0.6
			c0,0,0,0-0.1,0s0,0,0,0.1v0.3c0,0,0,0.1,0,0.1c0,0-0.1,0-0.1,0h-1.2c0,0-0.1,0-0.1,0c0,0,0-0.1,0-0.1v-8.8c0,0,0-0.1,0-0.1
			c0,0,0.1,0,0.1,0h1.2c0,0,0.1,0,0.1,0s0,0.1,0,0.1v2.8c0,0,0,0,0,0c0,0,0,0,0.1,0c0.3-0.4,0.8-0.6,1.4-0.6c1.1,0,1.8,0.7,2.1,2
			C194.6,48.2,194.7,48.7,194.7,49.2z M193.1,49.2c0-0.6-0.1-1-0.2-1.4c-0.2-0.5-0.5-0.8-1-0.8s-0.7,0.3-0.9,0.8
			c-0.1,0.3-0.1,0.8-0.1,1.3c0,0.6,0,1,0.1,1.3c0.1,0.5,0.5,0.8,0.9,0.8c0.5,0,0.8-0.3,1-0.8C193.1,50.2,193.1,49.8,193.1,49.2z"/>
		<path class="st1" d="M196,52.5c0,0,0-0.1,0-0.1v-8.8c0,0,0-0.1,0-0.1s0.1,0,0.1,0h1.2c0,0,0.1,0,0.1,0s0,0.1,0,0.1v8.8
			c0,0,0,0.1,0,0.1c0,0-0.1,0-0.1,0h-1.2C196,52.6,196,52.5,196,52.5z"/>
		<path class="st1" d="M199,44.7c-0.2-0.2-0.3-0.4-0.3-0.7c0-0.3,0.1-0.5,0.3-0.7c0.2-0.2,0.4-0.3,0.7-0.3c0.3,0,0.5,0.1,0.7,0.3
			c0.2,0.2,0.3,0.4,0.3,0.7c0,0.3-0.1,0.5-0.3,0.7c-0.2,0.2-0.4,0.3-0.7,0.3C199.3,45,199.1,44.9,199,44.7z M198.9,52.5
			c0,0,0-0.1,0-0.1V46c0,0,0-0.1,0-0.1c0,0,0.1,0,0.1,0h1.2c0,0,0.1,0,0.1,0c0,0,0,0.1,0,0.1v6.4c0,0,0,0.1,0,0.1c0,0-0.1,0-0.1,0
			H199C199,52.6,198.9,52.5,198.9,52.5z"/>
		<path class="st1" d="M202.6,52.1c-0.4-0.4-0.7-0.9-0.8-1.5c-0.1-0.4-0.1-0.8-0.1-1.4c0-0.5,0-1,0.1-1.4c0.1-0.6,0.4-1.1,0.8-1.5
			c0.5-0.4,1-0.5,1.7-0.5c0.7,0,1.2,0.2,1.7,0.5s0.7,0.8,0.8,1.3c0,0,0,0.1,0,0.1c0,0.1,0,0.1,0,0.2v0c0,0.1,0,0.1-0.1,0.1l-1.2,0.1
			h0c-0.1,0-0.1,0-0.1-0.1c0-0.1,0-0.1,0-0.2c0-0.2-0.2-0.4-0.3-0.6c-0.2-0.2-0.4-0.2-0.7-0.2s-0.5,0.1-0.7,0.3
			c-0.2,0.2-0.3,0.4-0.3,0.7c0,0.3-0.1,0.7-0.1,1.2c0,0.5,0,0.9,0.1,1.2c0,0.3,0.2,0.5,0.3,0.7c0.2,0.2,0.4,0.3,0.7,0.3
			c0.3,0,0.5-0.1,0.7-0.3c0.2-0.2,0.3-0.4,0.3-0.6l0-0.1c0,0,0-0.1,0.1-0.1c0,0,0.1,0,0.1,0l1.2,0.1c0.1,0,0.2,0.1,0.2,0.2l0,0.2
			c-0.1,0.6-0.3,1.1-0.8,1.4c-0.5,0.4-1,0.5-1.7,0.5C203.6,52.7,203.1,52.5,202.6,52.1z"/>
		<path class="st1" d="M211.8,46.1c0.4,0.2,0.7,0.4,0.9,0.8c0.2,0.3,0.3,0.7,0.3,1.1v4.4c0,0,0,0.1,0,0.1c0,0-0.1,0-0.1,0h-1.2
			c0,0-0.1,0-0.1,0c0,0,0-0.1,0-0.1v-0.3c0,0,0,0,0-0.1c0,0,0,0-0.1,0c-0.4,0.4-0.9,0.6-1.6,0.6c-0.6,0-1.1-0.2-1.5-0.5
			c-0.4-0.3-0.6-0.8-0.6-1.5c0-0.7,0.2-1.3,0.7-1.6c0.5-0.4,1.1-0.5,1.9-0.5h1c0,0,0.1,0,0.1-0.1v-0.3c0-0.3-0.1-0.6-0.3-0.8
			c-0.2-0.2-0.4-0.3-0.7-0.3c-0.3,0-0.5,0.1-0.6,0.2c-0.2,0.1-0.3,0.3-0.3,0.5c0,0.1-0.1,0.1-0.2,0.1l-1.3-0.1c0,0-0.1,0-0.1,0
			c0,0,0-0.1,0-0.1c0.1-0.6,0.3-1,0.8-1.4c0.5-0.3,1-0.5,1.7-0.5C211,45.8,211.4,45.9,211.8,46.1z M211.1,51.1
			c0.3-0.2,0.4-0.5,0.4-0.8v-0.7c0,0,0-0.1-0.1-0.1h-0.9c-0.4,0-0.7,0.1-0.9,0.2c-0.2,0.2-0.3,0.4-0.3,0.7c0,0.3,0.1,0.5,0.3,0.6
			c0.2,0.1,0.4,0.2,0.7,0.2C210.5,51.4,210.8,51.3,211.1,51.1z"/>
		<path class="st1" d="M214.7,52.1c-0.5-0.3-0.7-0.8-0.7-1.3v-0.1c0,0,0-0.1,0-0.1s0.1,0,0.1,0h1.1c0,0,0.1,0,0.1,0s0,0.1,0,0.1v0
			c0,0.2,0.1,0.4,0.3,0.5c0.2,0.2,0.4,0.2,0.7,0.2c0.3,0,0.5-0.1,0.7-0.2c0.2-0.1,0.3-0.3,0.3-0.5c0-0.2-0.1-0.4-0.3-0.5
			c-0.2-0.1-0.5-0.2-0.8-0.4l-0.3-0.1c-0.6-0.2-1.1-0.4-1.4-0.7c-0.4-0.3-0.5-0.7-0.5-1.3c0-0.6,0.2-1.1,0.7-1.4
			c0.4-0.4,1-0.5,1.7-0.5c0.7,0,1.3,0.2,1.8,0.5c0.4,0.4,0.7,0.8,0.7,1.4v0c0,0,0,0.1,0,0.1c0,0-0.1,0-0.1,0h-1.1c0,0-0.1,0-0.1,0
			c0,0,0-0.1,0-0.1v-0.1c0-0.2-0.1-0.4-0.3-0.5c-0.2-0.1-0.4-0.2-0.7-0.2c-0.3,0-0.5,0.1-0.7,0.2s-0.3,0.3-0.3,0.5
			c0,0.2,0.1,0.3,0.2,0.4c0.1,0.1,0.3,0.2,0.4,0.3c0.2,0.1,0.4,0.2,0.8,0.3c0.4,0.1,0.8,0.3,1,0.4c0.3,0.1,0.5,0.4,0.7,0.6
			c0.2,0.3,0.3,0.6,0.3,1c0,0.6-0.2,1.1-0.7,1.4c-0.4,0.3-1,0.5-1.8,0.5S215.2,52.5,214.7,52.1z"/>
	</g>
	<rect x="57.5" y="8.9" class="st1" width="0.3" height="45.1"/>
	<path class="st2" d="M28.4,16.2c0,1.5-1.3,2.8-2.8,2.8s-2.8-1.3-2.8-2.8s1.3-2.8,2.8-2.8S28.4,14.6,28.4,16.2z"/>
	<path class="st1" d="M27.6,45.3c0,1.5-1.3,2.8-2.8,2.8S22,46.8,22,45.3s1.3-2.8,2.8-2.8S27.6,43.8,27.6,45.3z"/>
	<path class="st1" d="M15.1,37.9c0,1.5-1.3,2.8-2.8,2.8s-2.8-1.3-2.8-2.8s1.3-2.8,2.8-2.8C13.8,35.1,15.1,36.3,15.1,37.9z"/>
	<path class="st3" d="M34.8,37.9c0,1.5,1.3,2.8,2.8,2.8s2.8-1.3,2.8-2.8s-1.3-2.8-2.8-2.8C36.1,35.1,34.8,36.3,34.8,37.9z"/>
	<path class="st2" d="M12.4,26.1c-1.5,0-2.8-1.3-2.8-2.8s1.3-2.8,2.8-2.8s2.8,1.3,2.8,2.8C15.2,24.9,13.9,26.1,12.4,26.1z"/>
	<path class="st3" d="M34.9,23.6c0-1.5,1.3-2.8,2.8-2.8s2.8,1.3,2.8,2.8s-1.3,2.8-2.8,2.8C36.1,26.4,34.9,25.1,34.9,23.6z"/>
	<path class="st2" d="M13.9,14.5c1.4,1.4,1.4,3.8,0,5.2c-1.4,1.4-3.8,1.4-5.2,0s-1.4-3.8,0-5.2C10.1,13,12.5,13,13.9,14.5z"/>
	<path class="st3" d="M41.4,41.6c1.4,1.4,1.4,3.8,0,5.2s-3.8,1.4-5.2,0s-1.4-3.8,0-5.2C37.6,40.2,40,40.2,41.4,41.6z"/>
	<path class="st1" d="M22.3,46.7c1.4,1.4,1.4,3.8,0,5.2s-3.8,1.4-5.2,0c-1.4-1.4-1.4-3.8,0-5.2C18.5,45.3,20.9,45.3,22.3,46.7z"/>
	<path class="st3" d="M40.7,28.3c1.4,1.4,3.8,1.4,5.2,0s1.4-3.8,0-5.2c-1.4-1.4-3.8-1.4-5.2,0C39.3,24.5,39.3,26.8,40.7,28.3z"/>
	<path class="st1" d="M8.7,38.4c-1.4,1.4-3.8,1.4-5.2,0s-1.4-3.8,0-5.2c1.4-1.4,3.8-1.4,5.2,0C10.2,34.6,10.2,36.9,8.7,38.4z"/>
	<path class="st2" d="M28.1,14.8c-1.4-1.4-1.4-3.8,0-5.2c1.4-1.4,3.8-1.4,5.2,0s1.4,3.8,0,5.2C31.9,16.2,29.5,16.2,28.1,14.8z"/>
	<line class="st4" x1="17.3" y1="23.1" x2="14.4" y2="33.6"/>
	<line class="st4" x1="14.4" y1="33.6" x2="22" y2="41.3"/>
	<line class="st4" x1="22" y1="41.3" x2="32.8" y2="38.6"/>
	<line class="st4" x1="32.8" y1="38.6" x2="35.4" y2="27.9"/>
	<line class="st4" x1="35.4" y1="27.9" x2="28.3" y2="20.3"/>
	<line class="st4" x1="28.3" y1="20.3" x2="17.3" y2="23.1"/>
	<line class="st4" x1="14.4" y1="33.6" x2="18.2" y2="32.6"/>
	<line class="st4" x1="17.3" y1="23.1" x2="19.6" y2="25.4"/>
	<line class="st4" x1="28.3" y1="20.3" x2="27" y2="24.5"/>
	<line class="st4" x1="35.4" y1="27.9" x2="32.1" y2="28.9"/>
	<line class="st4" x1="32.8" y1="38.6" x2="30.2" y2="36"/>
	<line class="st4" x1="22" y1="41.3" x2="23.1" y2="37.6"/>
	<path class="st2" d="M18.8,21.6c0.8,0.8,0.8,2.1,0,3c-0.8,0.8-2.1,0.8-3,0c-0.8-0.8-0.8-2.1,0-3C16.6,20.8,17.9,20.8,18.8,21.6z"/>
	<path class="st3" d="M34.3,37.1c0.8,0.8,0.8,2.1,0,3c-0.8,0.8-2.1,0.8-3,0c-0.8-0.8-0.8-2.1,0-3C32.2,36.3,33.5,36.3,34.3,37.1z"/>
	<path class="st1" d="M23.5,39.8c0.8,0.8,0.8,2.1,0,3c-0.8,0.8-2.1,0.8-3,0c-0.8-0.8-0.8-2.1,0-3C21.4,39,22.7,39,23.5,39.8z"/>
	<path class="st3" d="M33.9,29.4c0.8,0.8,2.1,0.8,3,0c0.8-0.8,0.8-2.1,0-3c-0.8-0.8-2.1-0.8-3,0C33.1,27.2,33.1,28.6,33.9,29.4z"/>
	<path class="st1" d="M15.8,35.1c-0.8,0.8-2.1,0.8-3,0c-0.8-0.8-0.8-2.1,0-3c0.8-0.8,2.1-0.8,3,0C16.7,33,16.7,34.3,15.8,35.1z"/>
	<circle class="st2" cx="28.3" cy="20.3" r="2.1"/>
	<g>
		<g>
			<g class="st0">
				<g>
					<polygon class="st5" points="25.2,31.1 28.7,31.9 28.7,34 					"/>
				</g>
				<g>
					<polygon class="st6" points="28.7,34 27.8,33.5 24.3,30.6 25.2,31.1 					"/>
				</g>
				<g>
					<polygon class="st5" points="28.7,29.8 28.7,31.4 25.2,31.1 					"/>
				</g>
				<g>
					<polygon class="st7" points="26.4,34.7 25.5,34.2 24.3,30.6 25.2,31.1 					"/>
				</g>
				<g>
					<polygon class="st8" points="24.5,34.9 23.6,34.4 24.3,30.6 25.2,31.1 					"/>
				</g>
				<g>
					<polygon class="st6" points="25.2,31.1 28.4,34.4 26.4,34.7 					"/>
				</g>
				<g>
					<polygon class="st9" points="22.1,35.3 21.2,34.8 24.3,30.6 25.2,31.1 					"/>
				</g>
				<g>
					<polygon class="st10" points="21.8,32.8 20.9,32.3 24.3,30.6 25.2,31.1 					"/>
				</g>
				<g>
					<polygon class="st6" points="25.2,31.1 26,34.7 24.5,34.9 					"/>
				</g>
				<g>
					<polygon class="st6" points="25.2,31.1 24.1,35 22.1,35.3 					"/>
				</g>
				<g>
					<polygon class="st11" points="21.8,32.8 25.2,31.1 21.8,35 					"/>
				</g>
				<g>
					<path class="st12" d="M27.4,31.3l-2.2-0.2l3.5,0.8l-0.9-0.5L27.4,31.3z M24.3,30.6l0.9,0.5l0.5-0.2L24.3,30.6z"/>
				</g>
				<g>
					<polygon class="st13" points="25.2,31.1 24.3,30.6 27.8,29.3 28.7,29.8 					"/>
				</g>
				<g>
					<polygon class="st5" points="28.7,27.2 28.7,29.4 25.2,31.1 					"/>
				</g>
				<g>
					<polygon class="st14" points="25.2,31.1 24.3,30.6 27.8,26.7 28.7,27.2 					"/>
				</g>
				<g>
					<polygon class="st15" points="21.8,35 20.9,34.5 20.9,32.3 21.8,32.8 					"/>
				</g>
				<g>
					<polygon class="st16" points="21.8,30.8 20.9,30.3 24.3,30.6 25.2,31.1 					"/>
				</g>
				<g>
					<polygon class="st15" points="21.8,32.3 20.9,31.8 20.9,30.3 21.8,30.8 					"/>
				</g>
				<g>
					<polygon class="st11" points="21.8,30.8 25.2,31.1 21.8,32.3 					"/>
				</g>
				<g>
					<polygon class="st15" points="21.8,30.3 20.9,29.8 20.9,27.7 21.8,28.2 					"/>
				</g>
				<g>
					<polygon class="st11" points="21.8,28.2 25.2,31.1 21.8,30.3 					"/>
				</g>
			</g>
		</g>
	</g>
</g>
</svg>
